<svg width="16" height="17" viewBox="0 0 16 17" fill="none" xmlns="http://www.w3.org/2000/svg">
    <path fill-rule="evenodd" clip-rule="evenodd" d="M7.73301 12.2309C7.66634 12.2309 7.59967 12.1642 7.53301 12.0975L4.86634 9.43086C4.59967 9.16419 4.59967 8.76419 4.86634 8.49753C5.13301 8.23086 5.53301 8.23086 5.79967 8.49753L7.33301 10.0309V2.29753C7.33301 1.89753 7.59967 1.63086 7.99967 1.63086C8.39967 1.63086 8.66634 1.89753 8.66634 2.29753V10.0309L10.1997 8.49753C10.4663 8.23086 10.8663 8.23086 11.133 8.49753C11.3997 8.76419 11.3997 9.16419 11.133 9.43086L8.46634 12.0975C8.43301 12.1309 8.39967 12.1475 8.36634 12.1642C8.33301 12.1809 8.29967 12.1975 8.26634 12.2309C8.19967 12.2975 8.06634 12.2975 7.99967 12.2975C7.93301 12.2975 7.79967 12.2975 7.73301 12.2309ZM14.6663 14.2975V12.2975C14.6663 11.8975 14.3997 11.6309 13.9997 11.6309C13.5997 11.6309 13.333 11.8975 13.333 12.2975V14.2975C13.333 14.6975 13.0663 14.9642 12.6663 14.9642H3.33301C2.93301 14.9642 2.66634 14.6975 2.66634 14.2975V12.2975C2.66634 11.8975 2.39967 11.6309 1.99967 11.6309C1.59967 11.6309 1.33301 11.8975 1.33301 12.2975V14.2975C1.33301 15.4309 2.19967 16.2975 3.33301 16.2975H12.6663C13.7997 16.2975 14.6663 15.4309 14.6663 14.2975Z" fill="#325ECD"/>
    <mask id="mask0_341_11266" style="mask-type:luminance" maskUnits="userSpaceOnUse" x="1" y="1" width="14" height="16">
        <path fill-rule="evenodd" clip-rule="evenodd" d="M7.73301 12.2309C7.66634 12.2309 7.59967 12.1642 7.53301 12.0975L4.86634 9.43086C4.59967 9.16419 4.59967 8.76419 4.86634 8.49753C5.13301 8.23086 5.53301 8.23086 5.79967 8.49753L7.33301 10.0309V2.29753C7.33301 1.89753 7.59967 1.63086 7.99967 1.63086C8.39967 1.63086 8.66634 1.89753 8.66634 2.29753V10.0309L10.1997 8.49753C10.4663 8.23086 10.8663 8.23086 11.133 8.49753C11.3997 8.76419 11.3997 9.16419 11.133 9.43086L8.46634 12.0975C8.43301 12.1309 8.39967 12.1475 8.36634 12.1642C8.33301 12.1809 8.29967 12.1975 8.26634 12.2309C8.19967 12.2975 8.06634 12.2975 7.99967 12.2975C7.93301 12.2975 7.79967 12.2975 7.73301 12.2309ZM14.6663 14.2975V12.2975C14.6663 11.8975 14.3997 11.6309 13.9997 11.6309C13.5997 11.6309 13.333 11.8975 13.333 12.2975V14.2975C13.333 14.6975 13.0663 14.9642 12.6663 14.9642H3.33301C2.93301 14.9642 2.66634 14.6975 2.66634 14.2975V12.2975C2.66634 11.8975 2.39967 11.6309 1.99967 11.6309C1.59967 11.6309 1.33301 11.8975 1.33301 12.2975V14.2975C1.33301 15.4309 2.19967 16.2975 3.33301 16.2975H12.6663C13.7997 16.2975 14.6663 15.4309 14.6663 14.2975Z" fill="white"/>
    </mask>
    <g mask="url(#mask0_341_11266)">
        <rect x="-0.000488281" y="0.963867" width="16" height="16" fill="#325ECD"/>
    </g>
</svg>
