<svg width="31" height="31" viewBox="0 0 31 31" fill="none" xmlns="http://www.w3.org/2000/svg">
    <path d="M18.6048 18.6664C17.7692 19.3401 16.7282 19.7075 15.6548 19.7075C14.5814 19.7075 13.5404 19.3401 12.7048 18.6664C12.4495 18.4542 12.1204 18.3522 11.7899 18.3826C11.4594 18.4131 11.1545 18.5736 10.9423 18.8289C10.7301 19.0842 10.628 19.4133 10.6585 19.7438C10.689 20.0743 10.8495 20.3792 11.1048 20.5914C12.3815 21.6572 13.9917 22.2409 15.6548 22.2409C17.3178 22.2409 18.9281 21.6572 20.2048 20.5914C20.4601 20.3792 20.6206 20.0743 20.6511 19.7438C20.6815 19.4133 20.5795 19.0842 20.3673 18.8289C20.2622 18.7025 20.1333 18.598 19.9879 18.5215C19.8424 18.4449 19.6834 18.3977 19.5197 18.3826C19.1892 18.3522 18.8601 18.4542 18.6048 18.6664ZM11.9048 14.6289C12.152 14.6289 12.3937 14.5556 12.5993 14.4182C12.8048 14.2809 12.965 14.0857 13.0596 13.8573C13.1542 13.6289 13.179 13.3775 13.1308 13.135C13.0825 12.8926 12.9635 12.6698 12.7887 12.495C12.6139 12.3202 12.3911 12.2012 12.1487 12.1529C11.9062 12.1047 11.6548 12.1294 11.4264 12.2241C11.198 12.3187 11.0028 12.4789 10.8655 12.6844C10.7281 12.89 10.6548 13.1317 10.6548 13.3789C10.6548 13.7104 10.7865 14.0284 11.0209 14.2628C11.2553 14.4972 11.5733 14.6289 11.9048 14.6289ZM19.4048 12.1289C19.1576 12.1289 18.9159 12.2022 18.7103 12.3396C18.5048 12.4769 18.3446 12.6721 18.2499 12.9006C18.1553 13.129 18.1306 13.3803 18.1788 13.6228C18.227 13.8652 18.3461 14.088 18.5209 14.2628C18.6957 14.4376 18.9185 14.5567 19.1609 14.6049C19.4034 14.6531 19.6547 14.6284 19.8831 14.5338C20.1116 14.4391 20.3068 14.2789 20.4441 14.0734C20.5815 13.8678 20.6548 13.6261 20.6548 13.3789C20.6548 13.0474 20.5231 12.7294 20.2887 12.495C20.0543 12.2606 19.7363 12.1289 19.4048 12.1289ZM15.6548 3.37891C13.1825 3.37891 10.7658 4.11202 8.71016 5.48554C6.65455 6.85905 5.05239 8.81129 4.1063 11.0954C3.1602 13.3794 2.91266 15.8928 3.39497 18.3175C3.87729 20.7423 5.0678 22.9696 6.81596 24.7177C8.56411 26.4659 10.7914 27.6564 13.2162 28.1387C15.6409 28.621 18.1543 28.3735 20.4383 27.4274C22.7224 26.4813 24.6746 24.8791 26.0482 22.8235C27.4217 20.7679 28.1548 18.3512 28.1548 15.8789C28.1548 14.2374 27.8315 12.6119 27.2033 11.0954C26.5751 9.57879 25.6544 8.2008 24.4936 7.04007C23.3329 5.87934 21.9549 4.9586 20.4383 4.33041C18.9218 3.70223 17.2963 3.37891 15.6548 3.37891ZM15.6548 25.8789C13.677 25.8789 11.7436 25.2924 10.0991 24.1936C8.4546 23.0948 7.17287 21.533 6.416 19.7057C5.65912 17.8785 5.46109 15.8678 5.84694 13.928C6.23279 11.9882 7.1852 10.2064 8.58372 8.80784C9.98225 7.40931 11.7641 6.45691 13.7039 6.07105C15.6437 5.6852 17.6544 5.88323 19.4816 6.64011C21.3089 7.39699 22.8707 8.67871 23.9695 10.3232C25.0683 11.9677 25.6548 13.9011 25.6548 15.8789C25.6548 18.5311 24.6012 21.0746 22.7259 22.95C20.8505 24.8253 18.307 25.8789 15.6548 25.8789Z" fill="#A0A0A0"/>
</svg>
