<svg width="28" height="18" viewBox="0 0 28 18" fill="none" xmlns="http://www.w3.org/2000/svg">
    <path opacity="0.2" d="M17.9775 1.10742C23.5004 1.10742 27.9775 5.58457 27.9775 11.1074V16.9973L0.854223 16.9973V11.1074C0.854223 5.58457 5.33138 1.10742 10.8542 1.10742L17.9775 1.10742Z" fill="#282F38"/>
    <path d="M14.8902 6.31897L18.9587 10.7534C19.0943 10.9012 19.1621 11.049 19.1621 11.2707C19.1621 11.4924 19.0943 11.6402 18.9587 11.788C18.6874 12.0837 18.2806 12.0837 18.0094 11.788L14.4155 7.87101L10.8217 11.788C10.5505 12.0837 10.1436 12.0837 9.87237 11.788C9.60114 11.4924 9.60114 11.049 9.87237 10.7534L13.9409 6.31897C14.2121 6.02334 14.619 6.02334 14.8902 6.31897Z" fill="white"/>
    <mask id="mask0_436_37682" style="mask-type:luminance" maskUnits="userSpaceOnUse" x="9" y="6" width="11" height="7">
        <path d="M14.8902 6.31897L18.9587 10.7534C19.0943 10.9012 19.1621 11.049 19.1621 11.2707C19.1621 11.4924 19.0943 11.6402 18.9587 11.788C18.6874 12.0837 18.2806 12.0837 18.0094 11.788L14.4155 7.87101L10.8217 11.788C10.5505 12.0837 10.1436 12.0837 9.87237 11.788C9.60114 11.4924 9.60114 11.049 9.87237 10.7534L13.9409 6.31897C14.2121 6.02334 14.619 6.02334 14.8902 6.31897Z" fill="white"/>
    </mask>
    <g mask="url(#mask0_436_37682)">
        <rect x="6.27832" y="17.9219" width="17.7375" height="16.274" transform="rotate(-90 6.27832 17.9219)" fill="white"/>
    </g>
</svg>
