<svg width="28" height="19" viewBox="0 0 28 19" fill="none" xmlns="http://www.w3.org/2000/svg">
    <path opacity="0.2" d="M10.7334 17.2402C5.21056 17.2402 0.733398 12.7631 0.733398 7.24023L0.733398 1.35035L27.8567 1.35035V7.24024C27.8567 12.7631 23.3796 17.2402 17.8567 17.2402H10.7334Z" fill="#282F38"/>
    <path d="M13.8208 12.0287L9.75226 7.5943C9.61664 7.44649 9.54883 7.29867 9.54883 7.07695C9.54883 6.85524 9.61664 6.70742 9.75226 6.55961C10.0235 6.26398 10.4303 6.26398 10.7016 6.55961L14.2954 10.4767L17.8893 6.55961C18.1605 6.26398 18.5673 6.26398 18.8386 6.55961C19.1098 6.85524 19.1098 7.29867 18.8386 7.5943L14.7701 12.0287C14.4988 12.3243 14.092 12.3243 13.8208 12.0287Z" fill="white"/>
    <mask id="mask0_436_37685" style="mask-type:luminance" maskUnits="userSpaceOnUse" x="9" y="6" width="11" height="7">
        <path d="M13.8208 12.0287L9.75226 7.5943C9.61664 7.44649 9.54883 7.29867 9.54883 7.07695C9.54883 6.85524 9.61664 6.70742 9.75226 6.55961C10.0235 6.26398 10.4303 6.26398 10.7016 6.55961L14.2954 10.4767L17.8893 6.55961C18.1605 6.26398 18.5673 6.26398 18.8386 6.55961C19.1098 6.85524 19.1098 7.29867 18.8386 7.5943L14.7701 12.0287C14.4988 12.3243 14.092 12.3243 13.8208 12.0287Z" fill="white"/>
    </mask>
    <g mask="url(#mask0_436_37685)">
        <rect x="22.4326" y="0.425781" width="17.7375" height="16.274" transform="rotate(90 22.4326 0.425781)" fill="white"/>
    </g>
</svg>
