<svg width="24" height="25" viewBox="0 0 24 25" fill="none" xmlns="http://www.w3.org/2000/svg">
    <g clip-path="url(#clip0_436_32813)">
        <path d="M11.9912 0.726562C5.35374 0.726562 -0.00878906 6.08292 -0.00878906 12.7266C-0.00878906 19.3702 5.34757 24.7266 11.9912 24.7266C18.6348 24.7266 23.9912 19.3702 23.9912 12.7266C23.9912 6.08292 18.6287 0.726562 11.9912 0.726562ZM11.9912 23.122C6.23217 23.122 1.59569 18.4855 1.59569 12.7265C1.59569 6.96745 6.23224 2.33097 11.9912 2.33097C17.7502 2.33097 22.3867 6.96745 22.3867 12.7265C22.3867 18.4855 17.7503 23.122 11.9912 23.122Z" fill="#122067"/>
        <path d="M16.3899 12.2454L11.1128 6.96837C10.7956 6.65117 10.3137 6.65117 9.99035 6.96837C9.67314 7.28558 9.67314 7.76757 9.99035 8.09095L14.6268 12.7274L9.99035 17.3639C9.67314 17.6811 9.67314 18.1631 9.99035 18.4864C10.149 18.645 10.3076 18.7243 10.5516 18.7243C10.7102 18.7243 10.9543 18.645 11.1921 18.5657L16.3899 13.3679C16.5485 13.2093 16.6279 13.0507 16.6279 12.8067C16.6279 12.5687 16.5486 12.404 16.3899 12.2454Z" fill="#122067"/>
    </g>
    <defs>
        <clipPath id="clip0_436_32813">
            <rect width="24" height="24" fill="white" transform="translate(-0.00878906 0.726562)"/>
        </clipPath>
    </defs>
</svg>
