<svg width="47" height="47" viewBox="0 0 47 47" fill="none" xmlns="http://www.w3.org/2000/svg">
    <path d="M23.5 0.3125C18.914 0.3125 14.4309 1.67242 10.6177 4.2203C6.80456 6.76817 3.83256 10.3896 2.07755 14.6265C0.322547 18.8635 -0.136643 23.5257 0.758052 28.0237C1.65275 32.5216 3.86114 36.6532 7.10397 39.896C10.3468 43.1389 14.4784 45.3473 18.9764 46.242C23.4743 47.1367 28.1365 46.6775 32.3735 44.9225C36.6104 43.1674 40.2318 40.1954 42.7797 36.3823C45.3276 32.5691 46.6875 28.0861 46.6875 23.5C46.6875 17.3503 44.2445 11.4525 39.896 7.10396C35.5475 2.75546 29.6497 0.3125 23.5 0.3125ZM35.8341 24.9823L15.9591 34.9198C15.7065 35.0461 15.4259 35.1056 15.1438 35.0928C14.8618 35.08 14.5877 34.9954 14.3475 34.8469C14.1074 34.6983 13.9092 34.4909 13.7718 34.2442C13.6344 33.9975 13.5624 33.7198 13.5625 33.4375V13.5625C13.5627 13.2803 13.6349 13.0028 13.7724 12.7564C13.9099 12.5099 14.1081 12.3027 14.3482 12.1544C14.5883 12.006 14.8623 11.9215 15.1442 11.9088C15.4262 11.8961 15.7067 11.9557 15.9591 12.0818L35.8341 22.0193C36.1088 22.157 36.3399 22.3684 36.5013 22.6299C36.6627 22.8914 36.7482 23.1927 36.7482 23.5C36.7482 23.8073 36.6627 24.1086 36.5013 24.3701C36.3399 24.6316 36.1088 24.843 35.8341 24.9807V24.9823Z" fill="white"/>
</svg>
