<svg width="24" height="25" viewBox="0 0 24 25" fill="none" xmlns="http://www.w3.org/2000/svg">
    <g clip-path="url(#clip0_436_32820)">
        <path d="M11.9912 24.7266C18.6287 24.7266 23.9912 19.3702 23.9912 12.7266C23.9912 6.08293 18.6348 0.726564 11.9912 0.726564C5.34757 0.726564 -0.00878716 6.08293 -0.00878716 12.7266C-0.00878716 19.3702 5.35367 24.7266 11.9912 24.7266ZM11.9912 2.33112C17.7503 2.33112 22.3867 6.96759 22.3867 12.7266C22.3867 18.4857 17.7502 23.1222 11.9912 23.1222C6.23224 23.1222 1.5957 18.4857 1.5957 12.7266C1.5957 6.96759 6.23217 2.33112 11.9912 2.33112Z" fill="#122067"/>
        <path d="M7.59251 13.2077L12.8696 18.4848C13.1868 18.802 13.6688 18.802 13.9921 18.4848C14.3093 18.1675 14.3093 17.6856 13.9921 17.3622L9.3556 12.7257L13.9921 8.08923C14.3093 7.77202 14.3093 7.29004 13.9921 6.96673C13.8335 6.80813 13.6749 6.72883 13.4308 6.72883C13.2722 6.72883 13.0281 6.80813 12.7903 6.88743L7.59251 12.0852C7.43391 12.2438 7.35454 12.4024 7.35454 12.6465C7.35454 12.8844 7.43384 13.0491 7.59251 13.2077Z" fill="#122067"/>
    </g>
    <defs>
        <clipPath id="clip0_436_32820">
            <rect width="24" height="24" fill="white" transform="matrix(-1 0 0 -1 23.9912 24.7266)"/>
        </clipPath>
    </defs>
</svg>
