<svg width="25" height="25" viewBox="0 0 25 25" fill="none" xmlns="http://www.w3.org/2000/svg">
    <path d="M12.9751 22.4609C7.4521 22.4609 2.9751 17.9839 2.9751 12.4609C2.9751 6.93794 7.4521 2.46094 12.9751 2.46094C18.4981 2.46094 22.9751 6.93794 22.9751 12.4609C22.9751 17.9839 18.4981 22.4609 12.9751 22.4609ZM11.9751 15.4609V17.4609H13.9751V15.4609H11.9751ZM13.9751 13.8159C14.7788 13.5737 15.4687 13.0509 15.9193 12.3427C16.3698 11.6345 16.551 10.788 16.4298 9.9574C16.3087 9.12682 15.8932 8.36738 15.2591 7.81739C14.625 7.26741 13.8145 6.96348 12.9751 6.96094C12.166 6.96088 11.3818 7.24109 10.7559 7.75393C10.13 8.26677 9.70111 8.98057 9.5421 9.77394L11.5041 10.1669C11.5598 9.88837 11.6934 9.63134 11.8895 9.42575C12.0855 9.22017 12.3359 9.07448 12.6115 9.00564C12.8871 8.9368 13.1766 8.94765 13.4463 9.03691C13.716 9.12617 13.9548 9.29018 14.1349 9.50985C14.3151 9.72952 14.4291 9.99583 14.4638 10.2778C14.4985 10.5597 14.4524 10.8457 14.3309 11.1025C14.2094 11.3593 14.0174 11.5763 13.7774 11.7283C13.5374 11.8802 13.2592 11.9609 12.9751 11.9609C12.7099 11.9609 12.4555 12.0663 12.268 12.2538C12.0805 12.4414 11.9751 12.6957 11.9751 12.9609V14.4609H13.9751V13.8159Z" fill="white"/>
</svg>
