<svg width="27" height="27" viewBox="0 0 27 27" fill="none" xmlns="http://www.w3.org/2000/svg">
    <path d="M23.3727 0.389648C22.8151 0.389648 22.3631 0.809395 22.3631 1.3272V4.75197C17.1652 0.078945 8.87217 0.203644 3.83992 5.03037C1.46834 7.30511 0.145313 10.3489 0.15188 13.5151C0.15188 14.0329 0.603893 14.4526 1.1615 14.4526C1.71911 14.4526 2.17106 14.0329 2.17106 13.5151C2.1723 7.81945 7.14539 3.20312 13.2789 3.20427C16.3939 3.20482 19.3654 4.42022 21.4686 6.55389L16.9961 7.9386C16.4664 8.10225 16.1798 8.63362 16.356 9.12549C16.5323 9.61737 17.1045 9.88352 17.6342 9.71987L23.6918 7.84483C24.1053 7.71695 24.3837 7.35702 24.3824 6.95233V1.32714C24.3823 0.809395 23.9303 0.389648 23.3727 0.389648Z" fill="#094DBA"/>
    <path d="M25.3923 12.5771C24.8347 12.5771 24.3827 12.9969 24.3827 13.5147C24.3814 19.2103 19.4083 23.8266 13.2748 23.8255C10.1599 23.8249 7.18838 22.6095 5.08513 20.4759L9.55764 19.0912C10.0873 18.9275 10.3739 18.3961 10.1977 17.9043C10.0215 17.4124 9.44927 17.1462 8.91958 17.3099L2.86198 19.1849C2.44848 19.3128 2.17003 19.6727 2.17139 20.0774V25.7026C2.17139 26.2204 2.6234 26.6402 3.18101 26.6402C3.73862 26.6402 4.19063 26.2204 4.19063 25.7026V22.2778C9.38846 26.9508 17.6816 26.8262 22.7138 21.9994C25.0853 19.7246 26.4084 16.6808 26.4018 13.5147C26.4019 12.9969 25.9499 12.5771 25.3923 12.5771Z" fill="#094DBA"/>
</svg>
