<svg width="96" height="96" viewBox="0 0 96 96" fill="none" xmlns="http://www.w3.org/2000/svg">
    <circle cx="48.3945" cy="48.1621" r="47.5" fill="#E0FFE1"/>
    <circle cx="48.3945" cy="48.1621" r="43.5" fill="#10AE36"/>
    <path fill-rule="evenodd" clip-rule="evenodd" d="M48.8945 76.1621C33.8945 69.4798 26.3945 62.8131 26.3945 56.1621V31.1621C26.3945 29.2431 27.131 28.7971 29.1693 27.5628C29.7865 27.1891 30.523 26.7431 31.3945 26.1621C31.799 25.8925 40.3026 21.1621 48.8945 21.1621C56.3827 21.1621 62.6445 23.6621 66.3945 26.1621C67.2661 26.7431 68.0026 27.1891 68.6197 27.5628C70.658 28.7971 71.3945 29.2431 71.3945 31.1621C71.4438 31.7052 71.4196 43.2549 71.4041 50.6489C71.3988 53.1703 71.3945 55.2085 71.3945 56.1621C71.3945 62.8288 63.8945 69.4954 48.8945 76.1621ZM66.3945 56.1621C66.3945 55.5863 66.396 54.6216 66.3991 53.0488L66.4092 48.1657C66.4124 46.5859 66.415 45.2302 66.4171 43.9366C66.4263 38.3562 66.4239 33.5667 66.4185 32.0853L66.0751 31.8722C65.2666 31.3707 64.2129 30.717 63.621 30.3224C59.9303 27.8619 54.545 26.1621 48.8945 26.1621C43.4897 26.1621 36.4661 28.7903 34.168 30.3224C33.5762 30.7169 32.5226 31.3706 31.7142 31.8721L31.714 31.8722L31.3945 32.0704V56.1621C31.3945 59.9332 36.9673 65.084 48.8968 70.6671C60.8249 65.0964 66.3945 59.9477 66.3945 56.1621ZM57.1268 39.3943L46.3945 50.1266L40.6623 44.3943L37.1268 47.9299L46.3945 57.1976L60.6623 42.9299L57.1268 39.3943Z" fill="white"/>
</svg>
